<?xml version="1.0" encoding="utf-8"?>
<!-- Generator: Adobe Illustrator 22.0.1, SVG Export Plug-In . SVG Version: 6.00 Build 0)  -->
<svg version="1.1" id="Layer_1" xmlns="http://www.w3.org/2000/svg" xmlns:xlink="http://www.w3.org/1999/xlink" x="0px" y="0px"
	 viewBox="0 0 100 100" style="enable-background:new 0 0 100 100;" xml:space="preserve">
<path d="M77.8,38.7L61.5,19.8c-1.6-1.9-4.5-2.1-6.3-0.5l-3.3,2.8c-1.9,1.6-2.1,4.5-0.5,6.3l0.4,0.4l-28.9,25c-2.7,2.3-3,6.5-0.7,9.2
	l2.4,2.8l-3.8,3.5c-0.6,0.6-0.6,1.5-0.1,2.1c0.3,0.3,0.7,0.5,1.1,0.5c0.4,0,0.7-0.1,1-0.4l3.7-3.4l2.5,2.9c1.3,1.5,3.1,2.2,4.9,2.2
	c1.5,0,3-0.5,4.2-1.6L48.3,63V80H30.8c-0.8,0-1.5,0.7-1.5,1.5S30,83,30.8,83h36c0.8,0,1.5-0.7,1.5-1.5S67.7,80,66.9,80H51.3V60.4
	l15.8-13.7l0.6,0.7c0.9,1,2.1,1.6,3.4,1.6c1,0,2.1-0.4,2.9-1.1l3.3-2.8h0C79.2,43.4,79.5,40.5,77.8,38.7z M36.3,69.4
	c-0.7,0.6-1.6,0.9-2.5,0.8c-0.9-0.1-1.8-0.5-2.4-1.2l-6.9-7.9c-1.3-1.5-1.1-3.7,0.4-4.9l28.5-24.6l11.4,13.2L36.3,69.4z M75.4,42.7
	l-3.3,2.8c-0.6,0.5-1.6,0.5-2.1-0.2L53.7,26.5c-0.5-0.6-0.5-1.6,0.2-2.1l3.3-2.8c0.3-0.2,0.6-0.4,1-0.4c0.4,0,0.8,0.2,1.1,0.5
	l16.3,18.9C76.1,41.3,76,42.2,75.4,42.7z"/>
</svg>
