<?xml version="1.0" encoding="utf-8"?>
<!-- Generator: Adobe Illustrator 22.0.1, SVG Export Plug-In . SVG Version: 6.00 Build 0)  -->
<svg version="1.1" id="Layer_1" xmlns="http://www.w3.org/2000/svg" xmlns:xlink="http://www.w3.org/1999/xlink" x="0px" y="0px"
	 viewBox="0 0 100 100" style="enable-background:new 0 0 100 100;" xml:space="preserve">
<path d="M86.5,81.7L71.4,66.6c4.2-5.5,6.6-12.3,6.6-19.7c0-18.1-14.7-32.8-32.8-32.8c-18.1,0-32.8,14.7-32.8,32.8
	c0,18.1,14.7,32.8,32.8,32.8c8.9,0,16.9-3.5,22.8-9.3l14.9,14.9c0.5,0.5,1.1,0.7,1.8,0.7s1.3-0.2,1.8-0.7
	C87.4,84.2,87.4,82.6,86.5,81.7z M45.2,74.6c-15.3,0-27.8-12.5-27.8-27.8c0-15.3,12.5-27.8,27.8-27.8C60.5,19.1,73,31.5,73,46.8
	C73,62.1,60.5,74.6,45.2,74.6z"/>
</svg>
