<?xml version="1.0" encoding="utf-8"?>
<!-- Generator: Adobe Illustrator 22.0.1, SVG Export Plug-In . SVG Version: 6.00 Build 0)  -->
<svg version="1.1" id="Layer_1" xmlns="http://www.w3.org/2000/svg" xmlns:xlink="http://www.w3.org/1999/xlink" x="0px" y="0px"
	 viewBox="0 0 100 100" style="enable-background:new 0 0 100 100;" xml:space="preserve">
<g>
	<rect x="9.7" y="24.2" transform="matrix(0.7071 -0.7071 0.7071 0.7071 -12.8852 19.8727)" width="15.6" height="2.5"/>
	<rect x="70.9" y="17.7" transform="matrix(0.7071 -0.7071 0.7071 0.7071 3.1188 58.5106)" width="2.5" height="15.6"/>
	<path d="M85.7,47.3h1.8v-6.5H72.7c-5.8-10.1-16.6-16.3-28.3-16.3c-18,0-32.7,14.7-32.7,32.7c0,18,14.7,32.7,32.7,32.7
		c11,0,21.1-5.4,27.2-14.6h15.9v-6.5h-1.8c-0.4-4.7-3.1-8.7-7.1-10.7C82.6,56,85.3,52,85.7,47.3z M44.4,53.3c2.1,0,3.7,1.7,3.7,3.7
		c0,2.1-1.7,3.7-3.7,3.7c-2.1,0-3.7-1.7-3.7-3.7C40.7,55,42.4,53.3,44.4,53.3z M43.1,50.9c-2.5,0.5-4.4,2.4-4.9,4.9H20.6
		C21.3,43.7,31,33.9,43.1,33.3V50.9z M38.3,58.4c0.6,2.9,3.1,5,6.2,5c3.5,0,6.3-2.8,6.3-6.3c0-3-2.2-5.6-5-6.2V33.3
		c6.2,0.3,11.9,3,16.1,7.5H59v6.5h1.8c0,0,0,0.1,0,0.1c0,0.5,0.1,1,0.2,1.5c0,0.1,0,0.1,0,0.2c0.1,0.5,0.2,1,0.4,1.4
		c0,0.1,0.1,0.2,0.1,0.3c0.2,0.5,0.4,0.9,0.6,1.3c0,0.1,0.1,0.1,0.1,0.2c0.2,0.4,0.5,0.8,0.7,1.2c0,0,0,0.1,0.1,0.1
		c0.3,0.4,0.6,0.8,0.9,1.2c0.1,0.1,0.1,0.1,0.2,0.2c0.3,0.4,0.6,0.7,1,1c0.1,0.1,0.1,0.1,0.2,0.2c0.4,0.3,0.8,0.6,1.2,0.9
		c0,0,0,0,0,0c0.4,0.3,0.8,0.5,1.3,0.8c0,0,0.1,0.1,0.1,0.1c0,0-0.1,0.1-0.1,0.1c-0.4,0.2-0.8,0.5-1.2,0.7c0,0,0,0,0,0c0,0,0,0,0,0
		c-0.4,0.3-0.8,0.6-1.2,0.9c0,0-0.1,0.1-0.1,0.1c0,0-0.1,0.1-0.1,0.1c-0.4,0.3-0.7,0.7-1,1C64,61,64,61.1,63.9,61.1
		c-0.3,0.4-0.6,0.8-0.9,1.2c0,0,0,0,0,0c0,0,0,0,0,0.1c-0.3,0.4-0.5,0.8-0.7,1.3c0,0,0,0.1,0,0.1c0,0,0,0,0,0c0,0,0,0.1,0,0.1
		c-0.2,0.4-0.4,0.9-0.6,1.3c0,0.1-0.1,0.2-0.1,0.3c-0.2,0.5-0.3,0.9-0.4,1.4c0,0.1,0,0.1,0,0.2c-0.1,0.5-0.2,1-0.2,1.5
		c0,0,0,0.1,0,0.1H59v6.5h0.9c-4.3,3.7-9.8,5.7-15.5,5.7c-12.7,0-23.1-10-23.8-22.6H38.3z M85,43.3v1.4H74.5h-6.8h-6.1v-1.4h5.5h7
		H85z M44.4,87.2c-16.6,0-30.1-13.5-30.1-30.1C14.3,40.5,27.8,27,44.4,27c10.3,0,19.8,5.2,25.3,13.8h-4.6c-5-6.4-12.6-10-20.7-10
		C29.9,30.7,18,42.5,18,57.1c0,14.5,11.8,26.4,26.4,26.4c7.3,0,14.2-3,19.2-8.3h4.9C62.8,82.8,54,87.2,44.4,87.2z M85,72.6H73.2
		h-7.3h-4.4v-1.4h5h7.6H85V72.6z M83.1,68.6h-8.3h-6.4h-5c0.4-4,3-7.4,6.5-8.7l0,0c0.4-0.2,0.8-0.3,1.3-0.4c0.1,0,0.1,0,0.2,0
		c0.2,0,0.4-0.1,0.6-0.1v2.4h2.5v-2.4c0.3,0,0.6,0.1,0.9,0.2l0,0C79.6,60.5,82.6,64.2,83.1,68.6z M75.5,56.4c-0.3,0.1-0.6,0.1-1,0.2
		v-2.4H72v2.4c-0.2,0-0.4,0-0.6-0.1c-0.1,0-0.2,0-0.2-0.1c-0.4-0.1-0.8-0.2-1.2-0.4c-3.6-1.3-6.1-4.8-6.6-8.7h5.3h6.7h7.7
		C82.6,51.8,79.6,55.4,75.5,56.4z"/>
	<path d="M44.4,22.2c3.2,0,5.7-2.6,5.7-5.7s-2.6-5.7-5.7-5.7c-3.2,0-5.7,2.6-5.7,5.7S41.3,22.2,44.4,22.2z M44.4,13.3
		c1.8,0,3.2,1.4,3.2,3.2s-1.4,3.2-3.2,3.2c-1.8,0-3.2-1.4-3.2-3.2S42.7,13.3,44.4,13.3z"/>
</g>
</svg>
