<?xml version="1.0" encoding="utf-8"?>
<!-- Generator: Adobe Illustrator 22.0.1, SVG Export Plug-In . SVG Version: 6.00 Build 0)  -->
<svg version="1.1" id="Layer_1" xmlns="http://www.w3.org/2000/svg" xmlns:xlink="http://www.w3.org/1999/xlink" x="0px" y="0px"
	 viewBox="0 0 100 100" style="enable-background:new 0 0 100 100;" xml:space="preserve">
<style type="text/css">
	.st0{fill:#FFFFFF;}
</style>
<g>
	<path d="M16.8,58.1h27.4c-0.5-0.9-1-1.9-1.5-3H16.8c-0.8,0-1.5,0.7-1.5,1.5S16,58.1,16.8,58.1z"/>
	<path d="M82,58.1c0.8,0,1.5-0.7,1.5-1.5s-0.7-1.5-1.5-1.5H56.1c-0.5,1.1-1,2.1-1.5,3H82z"/>
	<path d="M16.8,70.9h1.5c0.8,0,1.5-0.7,1.5-1.5s-0.7-1.5-1.5-1.5h-1.5c-0.8,0-1.5,0.7-1.5,1.5S16,70.9,16.8,70.9z"/>
	<path d="M47.9,67.9c-0.8,0-1.5,0.7-1.5,1.5s0.7,1.5,1.5,1.5h3c0.8,0,1.5-0.7,1.5-1.5s-0.7-1.5-1.5-1.5H47.9z"/>
	<path d="M58.8,67.9c-0.8,0-1.5,0.7-1.5,1.5s0.7,1.5,1.5,1.5h3c0.8,0,1.5-0.7,1.5-1.5s-0.7-1.5-1.5-1.5H58.8z"/>
	<path d="M69.7,67.9c-0.8,0-1.5,0.7-1.5,1.5s0.7,1.5,1.5,1.5h3c0.8,0,1.5-0.7,1.5-1.5s-0.7-1.5-1.5-1.5H69.7z"/>
	<path d="M26.2,67.9c-0.8,0-1.5,0.7-1.5,1.5s0.7,1.5,1.5,1.5h3c0.8,0,1.5-0.7,1.5-1.5s-0.7-1.5-1.5-1.5H26.2z"/>
	<path d="M37.1,67.9c-0.8,0-1.5,0.7-1.5,1.5s0.7,1.5,1.5,1.5h3c0.8,0,1.5-0.7,1.5-1.5s-0.7-1.5-1.5-1.5H37.1z"/>
	<path d="M82,67.9h-1.5c-0.8,0-1.5,0.7-1.5,1.5s0.7,1.5,1.5,1.5H82c0.8,0,1.5-0.7,1.5-1.5S82.8,67.9,82,67.9z"/>
	<path d="M82,80.6H16.8c-0.8,0-1.5,0.7-1.5,1.5s0.7,1.5,1.5,1.5H82c0.8,0,1.5-0.7,1.5-1.5S82.8,80.6,82,80.6z"/>
	<path class="st0" d="M49.4,61.4c0.5-1,1.1-2.1,1.8-3.3h-3.6C48.3,59.3,48.9,60.4,49.4,61.4z"/>
	<path class="st0" d="M61.8,32.2c0-6.9-5.6-12.4-12.4-12.4S37,25.3,37,32.2c0,4.2,4.8,14.7,9,22.9h6.7C57,46.9,61.8,36.4,61.8,32.2z
		 M40.8,33.4c0-4.8,3.9-8.6,8.6-8.6s8.6,3.9,8.6,8.6S54.2,42,49.4,42S40.8,38.1,40.8,33.4z"/>
	<path class="st0" d="M46.1,55.1c0.5,1,1.1,2,1.6,3h3.6c0.5-1,1-2,1.6-3H46.1z"/>
	<path d="M35.5,32.2c0-7.7,6.2-13.9,13.9-13.9c7.7,0,13.9,6.2,13.9,13.9c0,4.6-4.9,15.1-8.9,22.9h1.7c4-7.9,8.7-18.2,8.7-22.9
		c0-8.5-6.9-15.4-15.4-15.4S34,23.7,34,32.2c0,4.7,4.7,15,8.7,22.9h1.7C40.4,47.3,35.5,36.8,35.5,32.2z"/>
	<path d="M49.4,64.5c0,0-1.5-2.6-3.5-6.4h-1.7c2.1,4,3.7,6.8,3.9,7.2l1.3,2.3l1.3-2.3c0.2-0.3,1.8-3.2,3.9-7.2h-1.7
		C50.9,61.9,49.4,64.5,49.4,64.5z"/>
	<path d="M46,58.1c-0.5-0.9-1-1.9-1.6-3h-1.7c0.5,1.1,1,2.1,1.5,3H46z"/>
	<path d="M52.9,58.1h1.7c0.5-0.9,1-1.9,1.5-3h-1.7C53.9,56.2,53.4,57.2,52.9,58.1z"/>
	<path d="M52.9,58.1h-1.7c-0.6,1.2-1.2,2.3-1.8,3.3c-0.5-1-1.1-2.1-1.8-3.3H46c2,3.8,3.5,6.4,3.5,6.4S50.9,61.9,52.9,58.1z"/>
	<path d="M37,32.2c0-6.9,5.6-12.4,12.4-12.4s12.4,5.6,12.4,12.4c0,4.2-4.8,14.7-9,22.9h1.7c4-7.8,8.9-18.3,8.9-22.9
		c0-7.7-6.2-13.9-13.9-13.9c-7.7,0-13.9,6.2-13.9,13.9c0,4.6,4.9,15.1,8.9,22.9h1.7C41.9,46.9,37,36.4,37,32.2z"/>
	<path d="M51.2,58.1h1.7c0.5-0.9,1-1.9,1.6-3h-1.7C52.2,56.1,51.7,57.1,51.2,58.1z"/>
	<path d="M46.1,55.1h-1.7c0.5,1.1,1.1,2.1,1.6,3h1.7C47.1,57.1,46.6,56.1,46.1,55.1z"/>
	<path class="st0" d="M55,33.4c0-3.1-2.5-5.6-5.6-5.6c-3.1,0-5.6,2.5-5.6,5.6s2.5,5.6,5.6,5.6C52.5,39,55,36.5,55,33.4z"/>
	<path d="M58,33.4c0-4.8-3.9-8.6-8.6-8.6s-8.6,3.9-8.6,8.6s3.9,8.6,8.6,8.6S58,38.1,58,33.4z M42.3,33.4c0-3.9,3.2-7.1,7.1-7.1
		c3.9,0,7.1,3.2,7.1,7.1s-3.2,7.1-7.1,7.1C45.5,40.5,42.3,37.3,42.3,33.4z"/>
	<path d="M56.5,33.4c0-3.9-3.2-7.1-7.1-7.1c-3.9,0-7.1,3.2-7.1,7.1s3.2,7.1,7.1,7.1C53.4,40.5,56.5,37.3,56.5,33.4z M43.8,33.4
		c0-3.1,2.5-5.6,5.6-5.6c3.1,0,5.6,2.5,5.6,5.6S52.5,39,49.4,39C46.3,39,43.8,36.5,43.8,33.4z"/>
</g>
</svg>
