<?xml version="1.0" encoding="utf-8"?>
<!-- Generator: Adobe Illustrator 22.0.1, SVG Export Plug-In . SVG Version: 6.00 Build 0)  -->
<svg version="1.1" id="Layer_1" xmlns="http://www.w3.org/2000/svg" xmlns:xlink="http://www.w3.org/1999/xlink" x="0px" y="0px"
	 viewBox="0 0 100 100" style="enable-background:new 0 0 100 100;" xml:space="preserve">
<g>
	<path d="M64.8,37.8c-3,0-5.8,0.7-8.3,1.7c-0.8-6.9-6.9-12.4-14.1-12.4c-7.8,0-14.2,6.2-14.2,13.9c0,0.9,0.1,1.8,0.3,2.7
		c-9.8,1.7-17.3,9.8-17.3,19.6c0,11,9.4,19.9,21,19.9h32.7c12.9,0,23.4-10,23.4-22.2C88.2,48.5,77.5,37.8,64.8,37.8z M31.4,43.4
		c-0.2-0.8-0.3-1.6-0.3-2.4c0-6,5-10.9,11.2-10.9c6.1,0,11.2,4.8,11.2,10.7c0,0,0,0.1,0,0.1c-3.2,1.9-5.9,4.5-7.9,7.2
		c-3.8-3.1-8.6-4.8-13.6-4.8C31.9,43.4,31.6,43.5,31.4,43.4C31.4,43.5,31.4,43.4,31.4,43.4z M64.8,80.3H32.1c-9.9,0-18-7.6-18-16.9
		s8.1-16.9,18-16.9c4.9,0,9.4,1.8,12.9,5.1l1.3,1.3l1-1.5c3.2-5,9.5-10.4,17.5-10.4c11.1,0,20.4,9.3,20.4,20.2
		C85.2,71.7,76.1,80.3,64.8,80.3z"/>
	<path d="M42.4,26.2c0.8,0,1.5-0.7,1.5-1.5v-6.4c0-0.8-0.7-1.5-1.5-1.5s-1.5,0.7-1.5,1.5v6.4C40.9,25.5,41.5,26.2,42.4,26.2z"/>
	<path d="M29.4,30.6c0.3,0.3,0.7,0.4,1.1,0.4s0.8-0.1,1.1-0.4c0.6-0.6,0.6-1.5,0-2.1L27,24c-0.6-0.6-1.5-0.6-2.1,0s-0.6,1.5,0,2.1
		L29.4,30.6z"/>
	<path d="M19.2,42.9h6.4c0.8,0,1.5-0.7,1.5-1.5s-0.7-1.5-1.5-1.5h-6.4c-0.8,0-1.5,0.7-1.5,1.5S18.3,42.9,19.2,42.9z"/>
	<path d="M54.2,31.1c0.4,0,0.8-0.1,1.1-0.4l4.5-4.5c0.6-0.6,0.6-1.5,0-2.1s-1.5-0.6-2.1,0l-4.5,4.5c-0.6,0.6-0.6,1.5,0,2.1
		C53.4,30.9,53.8,31.1,54.2,31.1z"/>
</g>
</svg>
