<?xml version="1.0" encoding="utf-8"?>
<!-- Generator: Adobe Illustrator 22.0.1, SVG Export Plug-In . SVG Version: 6.00 Build 0)  -->
<svg version="1.1" id="Layer_1" xmlns="http://www.w3.org/2000/svg" xmlns:xlink="http://www.w3.org/1999/xlink" x="0px" y="0px"
	 viewBox="0 0 100 100" style="enable-background:new 0 0 100 100;" xml:space="preserve">
<path d="M88.2,51.1c0-0.1,0.1-0.1,0.1-0.2c0-0.1,0.1-0.2,0.1-0.2c0-0.1,0.1-0.2,0.1-0.2c0-0.1,0-0.1,0.1-0.2c0.1-0.3,0.1-0.7,0-1
	c0-0.1,0-0.1-0.1-0.2c0-0.1,0-0.2-0.1-0.2c0-0.1-0.1-0.2-0.1-0.2c0-0.1-0.1-0.1-0.1-0.2c-0.1-0.1-0.2-0.3-0.3-0.4l-37-37
	c-1-1-2.6-1-3.5,0c-1,1-1,2.6,0,3.5l32.7,32.7H12.2c-1.4,0-2.5,1.1-2.5,2.5s1.1,2.5,2.5,2.5h67.9L47.4,84.9c-1,1-1,2.6,0,3.5
	c0.5,0.5,1.1,0.7,1.8,0.7s1.3-0.2,1.8-0.7l37-37C88,51.3,88.1,51.2,88.2,51.1z"/>
</svg>
