<?xml version="1.0" encoding="utf-8"?>
<!-- Generator: Adobe Illustrator 22.0.1, SVG Export Plug-In . SVG Version: 6.00 Build 0)  -->
<svg version="1.1" id="Layer_1" xmlns="http://www.w3.org/2000/svg" xmlns:xlink="http://www.w3.org/1999/xlink" x="0px" y="0px"
	 viewBox="0 0 100 100" style="enable-background:new 0 0 100 100;" xml:space="preserve">
<g>
	<path d="M83.7,46.9C83.7,46.9,83.7,46.9,83.7,46.9L83.7,46.9C83.7,46.9,83.7,46.9,83.7,46.9l-4.6-22.3c-0.9-4.4-4.8-7.9-8.7-7.9
		H28.8c-4,0-7.8,3.5-8.7,7.9l-4.6,22.2c0,0,0,0,0,0l0,0c0,0,0,0,0,0c0,0.1,0,0.2,0,0.3v26.5v2.2v0.5c0,4,3.2,7.2,7.2,7.2h4
		c4,0,7.2-3.2,7.2-7.2v-0.5h31.2v0.5c0,4,3.2,7.2,7.2,7.2h4c4,0,7.2-3.2,7.2-7.2v-0.5v-2.2V47.2C83.8,47.1,83.7,47,83.7,46.9z
		 M18.5,48.7h62.2v24.2H18.5V48.7z M23,25.3c0.6-3,3.3-5.5,5.8-5.5h41.6c2.5,0,5.2,2.5,5.8,5.5l4.2,20.4H18.9L23,25.3z M31,76.4
		c0,2.3-1.9,4.2-4.2,4.2h-4c-2.3,0-4.2-1.9-4.2-4.2v-0.5H31V76.4z M80.8,76.4c0,2.3-1.9,4.2-4.2,4.2h-4c-2.3,0-4.2-1.9-4.2-4.2v-0.5
		h12.5V76.4z"/>
	<path d="M27.2,53.8c-3.9,0-7,3.2-7,7s3.2,7,7,7s7-3.2,7-7S31.1,53.8,27.2,53.8z M27.2,64.9c-2.2,0-4-1.8-4-4s1.8-4,4-4s4,1.8,4,4
		S29.5,64.9,27.2,64.9z"/>
	<path d="M72,53.8c-3.9,0-7,3.2-7,7s3.2,7,7,7s7-3.2,7-7S75.9,53.8,72,53.8z M72,64.9c-2.2,0-4-1.8-4-4s1.8-4,4-4s4,1.8,4,4
		S74.3,64.9,72,64.9z"/>
</g>
</svg>
