<?xml version="1.0" encoding="utf-8"?>
<!-- Generator: Adobe Illustrator 22.0.1, SVG Export Plug-In . SVG Version: 6.00 Build 0)  -->
<svg version="1.1" id="Layer_1" xmlns="http://www.w3.org/2000/svg" xmlns:xlink="http://www.w3.org/1999/xlink" x="0px" y="0px"
	 viewBox="0 0 100 100" style="enable-background:new 0 0 100 100;" xml:space="preserve">
<g>
	<path d="M84.7,70.4h-4.9V44.6c0-15.9-12.9-28.8-28.8-28.8S22.2,28.7,22.2,44.6v25.8h-4.9c-0.8,0-1.5,0.7-1.5,1.5v9.4
		c0,0.8,0.7,1.5,1.5,1.5h67.4c0.8,0,1.5-0.7,1.5-1.5v-9.4C86.2,71.1,85.5,70.4,84.7,70.4z M65,22.9v23.3H37V22.9
		c4-2.6,8.8-4.1,14-4.1S61,20.2,65,22.9z M25.2,44.6c0-7.7,3.4-14.7,8.8-19.4v22.5c0,0.8,0.7,1.5,1.5,1.5h31c0.8,0,1.5-0.7,1.5-1.5
		V25.1c5.4,4.7,8.8,11.7,8.8,19.4v25.8H25.2V44.6z M83.2,79.8H18.8v-6.4h3.4h57.7h3.4V79.8z"/>
	<path d="M51,44.8c6.3,0,11.5-5.1,11.5-11.5c0-6.3-5.1-11.5-11.5-11.5S39.5,27,39.5,33.3C39.5,39.6,44.7,44.8,51,44.8z M51,24.8
		c4.7,0,8.5,3.8,8.5,8.5c0,4.7-3.8,8.5-8.5,8.5s-8.5-3.8-8.5-8.5C42.5,28.6,46.3,24.8,51,24.8z"/>
	<circle cx="51" cy="33.3" r="3.3"/>
</g>
</svg>
