<?xml version="1.0" ?><svg viewBox="0 0 64 64" xmlns="http://www.w3.org/2000/svg"><title/><g id="Telescope"><path d="M61.7008,18.0731a8.4062,8.4062,0,0,0-9.336-6.0853l-.8691-3.1735a1,1,0,0,0-1.3222-.668l-6.94,2.66a.8847.8847,0,0,0-.1211.0566L10.5226,23.3758a1,1,0,0,0-.6065,1.1963l.5714,2.09L4.2593,28.366l-.2938-1.0742a1,1,0,1,0-1.9287.5274l.5575,2.0386v0L3.71,33.9354l1.6729,6.1162a1,1,0,0,0,.9638.7363,1.0279,1.0279,0,0,0,.2642-.0351,1,1,0,0,0,.7007-1.2285L7.0173,38.45l6.2264-1.703.5733,2.0977a1,1,0,0,0,.9634.7353,1.1038,1.1038,0,0,0,.168-.0136L25.453,37.7891,17.3831,53.92h-1.382a1,1,0,0,0,0,2h12a1,1,0,0,0,0-2h-.3818l4.3818-8.7637L36.3829,53.92h-.3818a1,1,0,0,0,0,2h12a1,1,0,0,0,0-2h-1.382L38.4557,37.6021a6.7586,6.7586,0,0,0,.5115-2.0926L56.838,32.4862a1,1,0,0,0,.7974-1.251l-.8693-3.1745A8.4058,8.4058,0,0,0,61.7008,18.0731ZM6.49,36.52,4.7872,30.2957l6.2256-1.7031,1.7027,6.2246Zm9.0166.9228-.5982-2.1883v0l-.0535-.1957-2.7717-10.14,30.84-11.8414,5.1592,18.8612L38.8551,33.5c-.0051-.0252-.0162-.0479-.0215-.073a6.9565,6.9565,0,0,0-.2982-1.01c-.021-.0554-.0434-.1094-.0658-.1641a6.9317,6.9317,0,0,0-.4638-.9363c-.0229-.0385-.0486-.0744-.0723-.1124a6.9755,6.9755,0,0,0-.6392-.8764l-.0091-.0095a6.9674,6.9674,0,0,0-.7736-.7533c-.0311-.0263-.06-.0544-.0917-.08a6.9782,6.9782,0,0,0-.8543-.5892c-.05-.03-.0992-.0595-.15-.0878a6.9487,6.9487,0,0,0-.9342-.433c-.0562-.0212-.1127-.04-.1695-.06a6.9507,6.9507,0,0,0-1.0267-.2751c-.0449-.0082-.0907-.0126-.136-.02a7.0838,7.0838,0,0,0-1.1481-.1A7.0031,7.0031,0,0,0,25.06,35.827Zm17.3447,2.3975a4.5092,4.5092,0,0,1-1.727-.0059,4.8818,4.8818,0,0,1-.5647-.1341,5.0246,5.0246,0,0,1-3.0174-2.5251l-.0009-.0013-.0015-.0026a4.4138,4.4138,0,0,1-.33-.8164,5.0567,5.0567,0,0,1-.2085-1.4355,5,5,0,0,1,9.9976-.14c.0044.044.0024.0918.0024.14a4.8465,4.8465,0,0,1-.541,2.2568A5.0332,5.0332,0,0,1,32.8512,39.8407Zm-6.06-.2559c.0361.04.08.0714.1171.1106a7.0446,7.0446,0,0,0,.6061.5726c.0661.0555.13.1125.1979.1654a7.0458,7.0458,0,0,0,.8421.5683c.0481.0274.0989.0485.1476.0747a6.9127,6.9127,0,0,0,.7948.3633c.0862.0332.1717.0656.2594.0953a6.7042,6.7042,0,0,0,.9955.2646,5.7657,5.7657,0,0,0,.6293.0916l.0152.0022-.29.5791L25.3829,53.92H19.62ZM38.6193,53.92l-5.5-11,.6118-1.2237c.0391-.01.0753-.0277.1142-.0384a6.898,6.898,0,0,0,.7395-.249c.0506-.02.1033-.0348.1534-.0561a7.01,7.01,0,0,0,.8326-.4261c.0715-.0426.1381-.0915.208-.1366.1964-.1264.3866-.2607.57-.406.0788-.0626.1553-.1267.2314-.1927.1749-.1516.341-.3123.5-.4807.0416-.044.09-.0806.1309-.1257L44.3825,53.92ZM50.0639,31.6034,44.7971,12.3488,49.86,10.408l3.0812,11.2549,1.6478,6.0244.0032.0065.8225,3.0043Zm6.1705-5.4842-1.4489-5.2913L52.8986,13.93a6.3977,6.3977,0,0,1,3.3358,12.19Z"/></g></svg>